<svg xmlns="http://www.w3.org/2000/svg" xml:space="preserve" id="Layer_1" x="0" y="0" version="1.1" viewBox="0 0 28.3 28.3"><style>.st0{fill:#0c243c}.st2{fill:#5bbdb2}</style><path d="M0 0h28.3v28.3H0z" class="st0"/><path d="M7.5 17v7.4h2.3v-4.3c-1-.8-1.8-1.9-2.3-3.1M19.7 6.3c.6 0 1.2-.5 1.2-1.2s-.5-1.2-1.2-1.2c-.6 0-1.2.5-1.2 1.2s.5 1.2 1.2 1.2m1.1 6.5V7.9h-2.3v6.6c0 2.4-1.9 4.3-4.3 4.3s-4.3-1.9-4.3-4.3 1.9-4.3 4.3-4.3c1.8 0 3.3 1.1 4 2.6V9.2c-1.1-.8-2.5-1.3-4-1.3-3.7 0-6.6 3-6.6 6.6 0 2 .9 3.8 2.3 5 1.2 1 2.7 1.6 4.3 1.6 3.7 0 6.6-3 6.6-6.6z" style="fill:#fff"/><path d="M83.9 38.6c.2 0 .4 0 .5.1.2.1.3.3.3.4 0 .2 0 .4-.1.5-.1.2-.2.3-.4.3s-.4 0-.5-.1c-.2-.1-.3-.2-.3-.4s0-.4.1-.5c.1-.2.2-.3.4-.3" class="st2"/><path d="M88.9 30.4c.4 0 .7.2 1 .5.3.4.5.7.4 1.1s-.3.8-.7 1.1l-.6.5.8.9-.7.6-2.7-3 1.3-1.2c.5-.4.9-.5 1.2-.5m.6 1.6c0-.2 0-.4-.2-.5-.2-.2-.3-.3-.5-.3q-.3 0-.6.3l-.6.5.9 1.1.6-.5c.3-.2.4-.4.4-.6m6.2-1.4-.7-.5-1.7.9.1.9-.9.5-.4-4.6.9-.5 3.6 2.8zm-2.5-.4 1.2-.6-1.4-1.2zm6.8-3.4.8-.2.4 1.6c-.2.2-.4.4-.7.6-.2.2-.5.3-.7.4q-.6.15-1.2 0c-.6-.15-.7-.3-1-.5-.3-.3-.5-.6-.6-1s-.1-.8 0-1.1.3-.7.6-1 .6-.5 1-.6c.3-.1.6-.1.9-.1s.6.1.9.2l-.3.8c-.2-.1-.4-.2-.6-.2h-.6c-.2.1-.4.2-.6.4q-.3.3-.3.6c-.1.2-.1.5 0 .7q0 .45.3.6.3.3.6.3c.2 0 .5.1.7 0 .1 0 .2-.1.4-.2.1-.1.2-.2.4-.3zm3.1-2.6 3.2-.2v.8l-2.2.1v.9l2-.1v.8l-2 .1v.9l2.3-.1v.8l-3.3.2zm9.5.6.9.2-1 4.1-.9-.2zm3.2.9.9.4-.3 3.4 2.4-2.5.9.4-3.3 3.1-.9-.4zm8.9 5.2-2.9 1.4-.8 1.1-.8-.6.8-1.1.5-3.2.8.6-.3 2.2 2-.9z" class="st0"/><path d="M128.7 39c0 .2-.2.3-.3.4-.2.1-.4.1-.5.1-.2 0-.3-.1-.4-.3s-.1-.3-.1-.5.2-.3.3-.4c.2-.1.4-.1.5-.1.2 0 .3.1.4.3s.1.4.1.5" class="st2"/><path d="m78.2 48.7 1.1-.3.4-2.2-1-.7.1-.5 3.8 2.6-.1.5-4.5 1.1zm1.9-2.2-.3 1.9 2.3-.6zm.7 4.8c0-.2 0-.4-.1-.6s-.2-.3-.4-.4-.4-.2-.6-.2-.4 0-.6.1-.3.2-.4.4-.2.4-.2.6 0 .4.1.6.2.3.3.4l-.3.3c-.2-.2-.3-.3-.4-.6-.2-.2-.2-.4-.2-.7s.1-.6.2-.8.3-.4.6-.5.5-.2.8-.2.6.1.8.2.4.3.5.6c.1.2.2.5.2.8s-.1.5-.1.7-.2.4-.4.5l-.3-.3c.3-.2.5-.5.5-.9m.1 3.2c0-.2-.1-.4-.2-.6s-.3-.3-.4-.4c-.2-.1-.4-.1-.6-.1s-.4.1-.6.2-.3.3-.4.4-.1.4-.1.6.1.4.2.6.2.3.3.4l-.3.3c-.2-.1-.3-.3-.4-.5s-.2-.4-.2-.7 0-.6.1-.8.3-.4.5-.6.4-.3.8-.3c.3 0 .6 0 .8.1.3.1.5.3.6.5.2.2.2.5.3.8 0 .3 0 .5-.1.7l-.3.6-.3-.2c.2-.3.3-.7.3-1m.8 3.8c-.1.3-.2.5-.4.7s-.5.3-.8.4q-.45.15-.9 0c-.3-.1-.5-.2-.7-.4s-.3-.5-.4-.8-.1-.6 0-.9.2-.5.4-.7.5-.3.8-.4.6-.1.8 0c.3.1.5.2.7.4s.3.5.4.8c.2.4.2.7.1.9m-.6-1.3c-.1-.1-.3-.2-.5-.3q-.3-.15-.6 0-.3 0-.6.3c-.2.1-.3.3-.3.5-.1.2-.1.4-.1.6s.1.4.3.5c.1.1.3.2.5.3q.3.15.6 0 .3 0 .6-.3c.3-.3.3-.3.3-.5q.15-.3 0-.6c0-.1-.1-.3-.2-.5m2.1 5.3-3 1.1-.1-.4.7-.3c-.5 0-.9-.3-1.1-.9-.1-.3-.1-.7 0-.9s.4-.5.7-.6l1.8-.7.2.4-1.7.6c-.3.1-.4.2-.5.5-.1.2-.1.4 0 .7q.15.45.6.6t.9 0l1.4-.5zm1.4 3.3c-.1.3-.3.5-.6.7l-1.7 1-.2-.4 1.6-.9c.2-.1.4-.3.5-.5s0-.4-.1-.7c-.2-.3-.4-.4-.6-.5-.3-.1-.5 0-.8.1l-1.5.8-.2-.4 2.8-1.5.2.4-.6.3c.5 0 .9.2 1.2.7q.15.45 0 .9m-.4 3.9c-.3-.1-.5-.2-.6-.4s-.2-.4-.2-.6.2-.4.4-.6l1.5-1.1-.3-.4.3-.2.3.4.7-.5.3.4-.7.5.6.8-.3.2-.6-.8-1.4 1c-.2.1-.2.2-.3.3 0 .1 0 .2.1.3s.2.2.4.3zm1.7 2.3.4-.3c-.4 0-.8-.1-1.2-.5-.1-.2-.2-.3-.3-.5s0-.3 0-.5.1-.3.3-.4c.2-.2.4-.3.7-.2.3 0 .5.2.8.5l.7.8.1-.1c.2-.2.3-.3.3-.5q0-.3-.3-.6c-.2-.2-.5-.4-.9-.5l.1-.4c.3.1.5.1.7.2s.4.2.5.4c.3.3.4.6.4.9s-.1.5-.4.8l-1.5 1.4zm.2-.7c.2.1.4 0 .6-.1l.3-.2-.7-.7c-.4-.4-.7-.5-.9-.2-.1.1-.2.3-.2.4 0 .2.1.3.2.5.3.2.5.3.7.3m4.9 1.4q0 .45-.3.9l-1.2 1.5-.4-.3 1.2-1.4c.2-.2.3-.4.2-.7 0-.2-.1-.4-.4-.6-.2-.2-.5-.3-.8-.2s-.5.2-.7.4l-1.1 1.3-.4-.3 2-2.4.4.3-.4.5c.5-.2.9-.1 1.4.2.3.2.5.5.5.8m1 3.8c-.3 0-.5-.1-.7-.2s-.3-.3-.4-.5c0-.2 0-.4.2-.7l1-1.5-.4-.2.2-.3.4.2.4-.7.4.2-.4.7.8.5-.2.3-.8-.5-.9 1.5c-.1.2-.1.3-.1.4s.1.2.2.3.3.1.5.1zm3.1-1.2c-.1-.1-.2-.2-.4-.3s-.3-.1-.5-.1-.2.1-.3.2c0 .1-.1.2 0 .3 0 .1.1.2.1.2l.3.3.4.4c.1.1.2.3.2.4 0 .2 0 .3-.1.5-.1.3-.3.4-.6.4s-.5 0-.8-.2c-.2-.1-.4-.2-.5-.4-.2-.2-.3-.3-.3-.5l.3-.2c.1.2.2.3.3.5s.3.3.5.4.3.1.5.1c.1 0 .3-.1.3-.2.1-.1.1-.3 0-.4s-.2-.3-.4-.5l-.4-.4c-.1-.1-.1-.2-.2-.4s0-.3.1-.5c.1-.3.3-.4.6-.4s.5 0 .8.2c.2.1.3.2.4.3s.2.3.3.4l-.3.2zm5 4.7-.5-.9c-.5.3-1 .4-1.4.3l-.6-.3c-.2-.1-.3-.3-.3-.5s-.1-.4 0-.6c.1-.3.2-.5.4-.6s.5-.2.8-.3c-.1-.2-.1-.4-.2-.6v-.5c.1-.3.2-.4.4-.5s.5-.1.8 0 .5.2.6.4.2.4.1.7c0 .2-.1.3-.3.4-.1.1-.3.2-.4.2-.2.1-.4.1-.6.2.1.3.4.8.7 1.3.2-.2.4-.4.6-.7l.2.3c-.2.3-.4.5-.7.7zm-1.2-.9c.2 0 .4-.1.6-.2-.4-.7-.6-1.1-.8-1.4-.3.1-.5.1-.7.2s-.3.2-.3.4c-.1.2 0 .4.1.6s.3.3.5.4zm-.1-2.6c0 .1.1.3.1.5.3-.1.6-.1.7-.2s.3-.2.3-.4 0-.3-.1-.4-.2-.2-.4-.3-.3 0-.5 0c-.1.1-.2.2-.3.4.1.1.1.3.2.4m7.5.1c.2.2.3.5.3.8 0 .2-.1.4-.2.6q-.15.3-.6.3c.3.1.5.2.7.4s.2.4.2.7c0 .4-.2.6-.4.8s-.7.3-1.1.3l-1.8-.1.2-4.2 1.8.1q.45 0 .9.3m-.4 3.3q.3-.15.3-.6 0-.3-.3-.6c-.2-.1-.4-.2-.8-.2l-1.3-.1-.1 1.5 1.3.1c.4.1.7 0 .9-.1m-.1-1.9c.2-.1.2-.3.3-.5 0-.2-.1-.4-.2-.5s-.4-.2-.7-.2l-1.2-.1-.1 1.4 1.3.1c.3-.1.5-.1.6-.2m4.5-.9.3 3.1-.5.1-.1-.7c-.2.5-.5.8-1.1.9-.4 0-.7 0-.9-.2s-.4-.5-.4-.9l-.2-1.9.5-.1.2 1.8q0 .45.3.6c.2.1.4.2.7.2s.6-.2.7-.4.2-.5.2-.9l-.2-1.5zm2.3-.1h-.4c-.2 0-.3.1-.4.2s-.1.2-.1.4c0 .1.1.2.2.2s.2.1.3.1h.4c.2 0 .4 0 .6.1.1 0 .3.1.4.2s.2.2.3.4c.1.3 0 .5-.2.7s-.4.3-.7.4c-.2.1-.4.1-.7 0-.2 0-.4-.1-.6-.2l.1-.4c.2.1.3.1.5.2h.6c.2 0 .3-.1.4-.2s.1-.2.1-.4q0-.15-.3-.3c-.1 0-.3-.1-.6-.1-.2 0-.4 0-.5-.1-.1 0-.3-.1-.4-.2s-.2-.2-.2-.4c-.1-.3 0-.5.2-.7s.4-.3.7-.4c.2 0 .4-.1.5 0 .2 0 .4 0 .5.1l-.3.5c-.1-.1-.3-.1-.4-.1m1.3-2c.1 0 .1.1.2.2v.2l-.2.2c-.1.1-.2 0-.2 0-.1 0-.1-.1-.2-.2V75l.2-.2c.1-.1.1-.1.2 0m-.1 1.2.4-.1 1 3-.4.1zm3.9-1.3c.3.1.5.3.7.7l.8 1.8-.4.2-.8-1.7c-.1-.3-.3-.4-.5-.5s-.4-.1-.7.1q-.45.15-.6.6c-.1.2-.1.5 0 .8l.7 1.5-.4.2-1.3-2.9.4-.2.3.6c0-.5.3-.9.8-1.2.4 0 .7-.1 1 0m3.2-1.7c.4.1.7.4 1 .9l-2.2 1.4c.2.2.4.4.7.4s.5 0 .8-.2c.2-.1.3-.2.4-.4.1-.1.2-.3.2-.5l.4.1q0 .3-.3.6c-.1.2-.3.4-.5.5-.3.2-.5.3-.8.3s-.5 0-.8-.2-.4-.3-.6-.6-.3-.5-.3-.8 0-.5.2-.8.3-.4.6-.6c.4-.2.8-.2 1.2-.1m.4.8c-.2-.3-.4-.4-.7-.5s-.5 0-.8.2-.4.4-.5.6c-.1.3 0 .5.1.8zm1.4-2.3c-.1.1-.3.1-.4.2-.2.2-.3.3-.3.4s0 .2.1.4c.1.1.1.1.2.1h.3c.1 0 .2-.1.4-.1.2-.1.4-.2.5-.2h.4c.2 0 .3.1.4.3.2.2.2.5.2.7-.1.3-.2.5-.5.7-.2.1-.4.3-.6.3-.2.1-.4.1-.6.1V74c.2 0 .4 0 .6-.1s.4-.2.5-.3c.2-.1.3-.3.3-.4s0-.3-.1-.4-.2-.2-.4-.1c-.1 0-.3.1-.6.2-.2.1-.4.1-.5.2h-.4c-.1 0-.3-.1-.4-.3-.2-.2-.2-.5-.2-.7.1-.2.2-.5.5-.7.1-.1.3-.2.5-.3s.3-.1.5-.1l.1.4c-.2 0-.4 0-.5.1m1.9-1.8c-.1.1-.3.2-.4.3s-.2.3-.2.4 0 .2.1.3.2.1.2.1c.1 0 .2 0 .3-.1.1 0 .2-.1.4-.2s.4-.2.5-.2c.1-.1.3-.1.4-.1s.3.1.4.2c.2.2.3.4.2.7 0 .3-.2.5-.4.7s-.3.3-.6.4c-.2.1-.4.2-.6.2l-.1-.4c.2 0 .4-.1.5-.1.2-.1.3-.2.5-.3.1-.1.2-.3.3-.4 0-.1 0-.3-.1-.4s-.2-.1-.4-.1-.3.1-.6.2c-.2.1-.4.2-.5.2s-.3.1-.4.1-.3-.1-.4-.2c-.2-.2-.3-.4-.2-.7 0-.2.2-.5.4-.7.1-.1.3-.2.4-.3.2-.1.3-.2.5-.2l.1.4c0 .1-.2.1-.3.2m6.1-3.6-1.2-.2-1.2 1.9.6 1-.3.4-2.5-3.9.3-.4 4.5.7zm-2.7 1.3 1-1.6-2.3-.4zm.4-6.9 4.1 1.8-.2.4-.6-.3c.2.2.2.4.3.7 0 .2 0 .5-.1.7-.1.3-.3.5-.5.6-.2.2-.5.2-.7.3s-.6 0-.8-.2-.5-.3-.7-.5-.3-.5-.3-.7 0-.5.1-.8.3-.5.5-.6.4-.2.7-.2l-1.8-.8zm3.1 2.5c0-.2-.1-.4-.2-.5-.1-.2-.3-.3-.5-.4s-.4-.1-.6-.1-.4.1-.6.2-.3.3-.4.5-.1.4-.1.6.1.4.2.5c.1.2.3.3.5.4s.4.1.6.1.4-.1.6-.2.3-.3.4-.5.2-.4.1-.6m-1.8-2.4.1-.5 2.9-.2-2.3-1.7.1-.5 2.7 2.1-.1.5zm-.1-4c.1 0 .2-.1.2 0 .1 0 .2.1.2.1 0 .1.1.1 0 .2 0 .1-.1.2-.1.2-.1 0-.2.1-.2 0-.1 0-.2-.1-.2-.1 0-.1-.1-.1 0-.2 0-.1 0-.2.1-.2m1 .7.1-.5 3.1.6-.1.5zm.9-2.7c-.1.1-.1.3-.1.4 0 .2 0 .3.1.5.1.1.2.2.3.2s.2 0 .3-.1l.2-.2c0-.1.1-.2.2-.4s.2-.4.3-.5l.3-.3c.1-.1.3-.1.5-.1.3 0 .5.2.6.4s.2.5.1.8c0 .2-.1.4-.2.6s-.2.4-.4.5l-.3-.2c.1-.1.3-.3.3-.4s.1-.4.2-.6c0-.2 0-.4-.1-.5s-.2-.2-.3-.2c-.2 0-.3 0-.4.1s-.2.3-.3.5-.2.4-.2.5l-.3.3c-.1.1-.3.1-.5.1-.3 0-.5-.2-.6-.4s-.2-.5-.1-.8c0-.2.1-.4.1-.5.1-.2.2-.3.3-.4l.3.2c-.2.2-.3.3-.3.5m-.2-3.5q.15-.3.6-.6c.2-.1.5-.2.8-.2s.6.1.8.2q.3.15.6.6c.1.2.2.5.2.8s-.1.6-.2.8q-.15.3-.6.6c-.2.1-.5.2-.8.2s-.6-.1-.8-.2q-.3-.15-.6-.6c-.1-.2-.2-.5-.2-.8s.1-.6.2-.8m.4 1.4c.1.2.2.3.4.4s.4.1.6.1.4-.1.6-.2.3-.2.4-.4.1-.4.1-.6-.1-.4-.2-.6-.2-.3-.4-.4-.4-.1-.6-.1-.4.1-.6.2-.3.2-.4.4-.1.4-.1.6.1.4.2.6m-.6-3.8c-.1-.2-.2-.4-.3-.7l.5-.1c0 .3.2.6.4.8s.5.3.8.2l1.7-.2.1.5-3.3.4-.1-.5.7-.1c-.2 0-.4-.1-.5-.3m-.2-2.5v.4c0 .2.1.3.2.4s.2.1.4.1c.1 0 .2-.1.2-.1 0-.1.1-.2.1-.3v-.4c0-.2 0-.4.1-.6 0-.1.1-.3.2-.4s.2-.2.4-.2c.3-.1.5 0 .7.2s.3.4.4.8c0 .2.1.4 0 .7 0 .2-.1.4-.2.6l-.4-.1c.1-.2.2-.3.2-.5v-.6c0-.2-.1-.3-.2-.5s-.2-.1-.4-.1q-.15 0-.3.3c-.1.2-.1.3-.1.6 0 .2 0 .4-.1.5 0 .1-.1.3-.2.4s-.2.2-.4.2c-.3.1-.5 0-.7-.2s-.3-.4-.4-.7c0-.2-.1-.4 0-.5 0-.2 0-.4.1-.5l.4.1z" class="st0"/><path d="M99.5 55v7.4h2.3v-4.3c-1-.8-1.8-1.9-2.3-3.1m12.1-10.8c.6 0 1.2-.5 1.2-1.2s-.5-1.2-1.2-1.2c-.6 0-1.2.5-1.2 1.2s.6 1.2 1.2 1.2m1.2 6.6v-4.9h-2.3v6.6c0 2.4-1.9 4.3-4.3 4.3s-4.3-1.9-4.3-4.3 1.9-4.3 4.3-4.3c1.8 0 3.3 1.1 4 2.6v-3.6c-1.1-.8-2.5-1.3-4-1.3-3.7 0-6.6 3-6.6 6.6 0 2 .9 3.8 2.3 5 1.2 1 2.7 1.6 4.3 1.6 3.7 0 6.6-3 6.6-6.6z" class="st2"/></svg>