<svg xmlns="http://www.w3.org/2000/svg" xml:space="preserve" viewBox="0 0 72.3 72.3"><circle cx="36.1" cy="36.1" r="36.1" style="fill:#5bbdb2"/><path d="M19.3 43.3v18.8h5.9V51.3c-2.7-2-4.8-4.8-5.9-8M50.1 16c1.6 0 2.9-1.3 2.9-2.9s-1.3-2.9-2.9-2.9-2.9 1.3-2.9 2.9 1.3 2.9 2.9 2.9M53 32.8V20.2h-5.9v16.9c0 6.1-4.9 11-11 11s-11-4.9-11-11 4.9-11 11-11c4.5 0 8.4 2.7 10.1 6.6v-9.1c-2.8-2.1-6.3-3.4-10.1-3.4-9.3 0-16.9 7.5-16.9 16.9 0 5.1 2.3 9.7 5.9 12.8 3 2.6 6.8 4.1 11 4.1C45.4 54 53 46.4 53 37.1z" style="fill:#fff"/></svg>