<?xml version="1.0" encoding="utf-8"?>
<!-- Generator: Adobe Illustrator 23.0.2, SVG Export Plug-In . SVG Version: 6.00 Build 0)  -->
<svg version="1.1" id="Layer_1" xmlns="http://www.w3.org/2000/svg" xmlns:xlink="http://www.w3.org/1999/xlink" x="0px" y="0px"
	 viewBox="0 0 28.3 28.3" style="enable-background:new 0 0 28.3 28.3;" xml:space="preserve">
<style type="text/css">
	.st0{fill:#0C243C;}
	.st1{fill:#FFFFFF;}
	.st2{fill:#5BBDB2;}
</style>
<rect class="st0" width="28.3" height="28.3"/>
<g>
	<g>
		<path class="st1" d="M7.5,17v7.4h2.3v-4.3C8.8,19.3,8,18.2,7.5,17z"/>
		<path class="st1" d="M19.7,6.3c0.6,0,1.2-0.5,1.2-1.2s-0.5-1.2-1.2-1.2c-0.6,0-1.2,0.5-1.2,1.2S19,6.3,19.7,6.3z"/>
		<path class="st1" d="M20.8,12.8v-0.7V7.9h-2.3v1v0.3v0.3v5c0,2.4-1.9,4.3-4.3,4.3c-2.4,0-4.3-1.9-4.3-4.3c0-2.4,1.9-4.3,4.3-4.3
			c1.8,0,3.3,1.1,4,2.6V9.2c-1.1-0.8-2.5-1.3-4-1.3c-3.7,0-6.6,3-6.6,6.6c0,2,0.9,3.8,2.3,5c1.2,1,2.7,1.6,4.3,1.6
			c3.7,0,6.6-3,6.6-6.6c0,0,0,0,0,0V12.8z"/>
	</g>
</g>
<g>
	<g>
		<g>
			<path class="st2" d="M83.9,38.6c0.2,0,0.4,0,0.5,0.1c0.2,0.1,0.3,0.3,0.3,0.4c0,0.2,0,0.4-0.1,0.5c-0.1,0.2-0.2,0.3-0.4,0.3
				c-0.2,0-0.4,0-0.5-0.1c-0.2-0.1-0.3-0.2-0.3-0.4s0-0.4,0.1-0.5C83.6,38.7,83.7,38.6,83.9,38.6z"/>
			<path class="st0" d="M88.9,30.4c0.4,0,0.7,0.2,1,0.5c0.3,0.4,0.5,0.7,0.4,1.1c-0.1,0.4-0.3,0.8-0.7,1.1L89,33.6l0.8,0.9l-0.7,0.6
				l-2.7-3l1.3-1.2C88.2,30.5,88.6,30.4,88.9,30.4z M89.5,32c0-0.2,0-0.4-0.2-0.5c-0.2-0.2-0.3-0.3-0.5-0.3c-0.2,0-0.4,0.1-0.6,0.3
				L87.6,32l0.9,1.1l0.6-0.5C89.4,32.4,89.5,32.2,89.5,32z"/>
			<path class="st0" d="M95.7,30.6L95,30.1L93.3,31l0.1,0.9l-0.9,0.5l-0.4-4.6l0.9-0.5l3.6,2.8L95.7,30.6z M93.2,30.2l1.2-0.6
				L93,28.4L93.2,30.2z"/>
			<path class="st0" d="M100,26.8l0.8-0.2l0.4,1.6c-0.2,0.2-0.4,0.4-0.7,0.6c-0.2,0.2-0.5,0.3-0.7,0.4c-0.4,0.1-0.8,0.1-1.2,0
				s-0.7-0.3-1-0.5c-0.3-0.3-0.5-0.6-0.6-1c-0.1-0.4-0.1-0.8,0-1.1c0.1-0.3,0.3-0.7,0.6-1c0.3-0.3,0.6-0.5,1-0.6
				c0.3-0.1,0.6-0.1,0.9-0.1c0.3,0,0.6,0.1,0.9,0.2l-0.3,0.8c-0.2-0.1-0.4-0.2-0.6-0.2c-0.2,0-0.4,0-0.6,0c-0.2,0.1-0.4,0.2-0.6,0.4
				c-0.2,0.2-0.3,0.4-0.3,0.6c-0.1,0.2-0.1,0.5,0,0.7c0,0.3,0.1,0.5,0.3,0.6c0.2,0.2,0.4,0.3,0.6,0.3c0.2,0,0.5,0.1,0.7,0
				c0.1,0,0.2-0.1,0.4-0.2c0.1-0.1,0.2-0.2,0.4-0.3L100,26.8z"/>
			<path class="st0" d="M103.1,24.2l3.2-0.2v0.8l-2.2,0.1v0.9l2-0.1v0.8l-2,0.1v0.9l2.3-0.1v0.8l-3.3,0.2V24.2z"/>
			<path class="st0" d="M112.6,24.8l0.9,0.2l-1,4.1l-0.9-0.2L112.6,24.8z"/>
			<path class="st0" d="M115.8,25.7l0.9,0.4l-0.3,3.4l2.4-2.5l0.9,0.4l-3.3,3.1l-0.9-0.4L115.8,25.7z"/>
			<path class="st0" d="M124.7,30.9l-2.9,1.4l-0.8,1.1l-0.8-0.6l0.8-1.1l0.5-3.2l0.8,0.6l-0.3,2.2l2-0.9L124.7,30.9z"/>
			<path class="st2" d="M128.7,39c0,0.2-0.2,0.3-0.3,0.4c-0.2,0.1-0.4,0.1-0.5,0.1c-0.2,0-0.3-0.1-0.4-0.3s-0.1-0.3-0.1-0.5
				s0.2-0.3,0.3-0.4c0.2-0.1,0.4-0.1,0.5-0.1c0.2,0,0.3,0.1,0.4,0.3C128.7,38.7,128.7,38.9,128.7,39z"/>
		</g>
		<g>
			<path class="st0" d="M78.2,48.7l1.1-0.3l0.4-2.2l-1-0.7l0.1-0.5l3.8,2.6l-0.1,0.5L78,49.2L78.2,48.7z M80.1,46.5l-0.3,1.9
				l2.3-0.6L80.1,46.5z"/>
			<path class="st0" d="M80.8,51.3c0-0.2,0-0.4-0.1-0.6c-0.1-0.2-0.2-0.3-0.4-0.4c-0.2-0.1-0.4-0.2-0.6-0.2c-0.2,0-0.4,0-0.6,0.1
				c-0.2,0.1-0.3,0.2-0.4,0.4c-0.1,0.2-0.2,0.4-0.2,0.6s0,0.4,0.1,0.6s0.2,0.3,0.3,0.4l-0.3,0.3c-0.2-0.2-0.3-0.3-0.4-0.6
				C78,51.7,78,51.5,78,51.2s0.1-0.6,0.2-0.8c0.1-0.2,0.3-0.4,0.6-0.5c0.3-0.1,0.5-0.2,0.8-0.2c0.3,0,0.6,0.1,0.8,0.2
				c0.2,0.1,0.4,0.3,0.5,0.6c0.1,0.2,0.2,0.5,0.2,0.8S81,51.8,81,52s-0.2,0.4-0.4,0.5l-0.3-0.3C80.6,52,80.8,51.7,80.8,51.3z"/>
			<path class="st0" d="M80.9,54.5c0-0.2-0.1-0.4-0.2-0.6c-0.1-0.2-0.3-0.3-0.4-0.4c-0.2-0.1-0.4-0.1-0.6-0.1
				c-0.2,0-0.4,0.1-0.6,0.2c-0.2,0.1-0.3,0.3-0.4,0.4c-0.1,0.1-0.1,0.4-0.1,0.6s0.1,0.4,0.2,0.6c0.1,0.2,0.2,0.3,0.3,0.4l-0.3,0.3
				c-0.2-0.1-0.3-0.3-0.4-0.5s-0.2-0.4-0.2-0.7s0-0.6,0.1-0.8c0.1-0.2,0.3-0.4,0.5-0.6c0.2-0.2,0.4-0.3,0.8-0.3c0.3,0,0.6,0,0.8,0.1
				c0.3,0.1,0.5,0.3,0.6,0.5c0.2,0.2,0.2,0.5,0.3,0.8c0,0.3,0,0.5-0.1,0.7c-0.1,0.2-0.2,0.4-0.3,0.6l-0.3-0.2
				C80.8,55.2,80.9,54.8,80.9,54.5z"/>
			<path class="st0" d="M81.7,58.3c-0.1,0.3-0.2,0.5-0.4,0.7c-0.2,0.2-0.5,0.3-0.8,0.4c-0.3,0.1-0.6,0.1-0.9,0
				c-0.3-0.1-0.5-0.2-0.7-0.4c-0.2-0.2-0.3-0.5-0.4-0.8s-0.1-0.6,0-0.9c0.1-0.3,0.2-0.5,0.4-0.7c0.2-0.2,0.5-0.3,0.8-0.4
				c0.3-0.1,0.6-0.1,0.8,0c0.3,0.1,0.5,0.2,0.7,0.4c0.2,0.2,0.3,0.5,0.4,0.8C81.8,57.8,81.8,58.1,81.7,58.3z M81.1,57
				c-0.1-0.1-0.3-0.2-0.5-0.3c-0.2-0.1-0.4-0.1-0.6,0c-0.2,0-0.4,0.1-0.6,0.3c-0.2,0.1-0.3,0.3-0.3,0.5C79,57.7,79,57.9,79,58.1
				c0,0.2,0.1,0.4,0.3,0.5c0.1,0.1,0.3,0.2,0.5,0.3c0.2,0.1,0.4,0.1,0.6,0c0.2,0,0.4-0.1,0.6-0.3s0.3-0.3,0.3-0.5
				c0.1-0.2,0.1-0.4,0-0.6C81.3,57.4,81.2,57.2,81.1,57z"/>
			<path class="st0" d="M83.2,62.3l-3,1.1L80.1,63l0.7-0.3c-0.5,0-0.9-0.3-1.1-0.9c-0.1-0.3-0.1-0.7,0-0.9c0.1-0.2,0.4-0.5,0.7-0.6
				l1.8-0.7l0.2,0.4l-1.7,0.6c-0.3,0.1-0.4,0.2-0.5,0.5c-0.1,0.2-0.1,0.4,0,0.7c0.1,0.3,0.3,0.5,0.6,0.6c0.3,0.1,0.6,0.1,0.9,0
				l1.4-0.5L83.2,62.3z"/>
			<path class="st0" d="M84.6,65.6c-0.1,0.3-0.3,0.5-0.6,0.7l-1.7,1l-0.2-0.4l1.6-0.9c0.2-0.1,0.4-0.3,0.5-0.5
				c0.1-0.2,0-0.4-0.1-0.7c-0.2-0.3-0.4-0.4-0.6-0.5c-0.3-0.1-0.5,0-0.8,0.1l-1.5,0.8L81,64.8l2.8-1.5l0.2,0.4L83.4,64
				c0.5,0,0.9,0.2,1.2,0.7C84.7,65,84.7,65.3,84.6,65.6z"/>
			<path class="st0" d="M84.2,69.5c-0.3-0.1-0.5-0.2-0.6-0.4c-0.1-0.2-0.2-0.4-0.2-0.6s0.2-0.4,0.4-0.6l1.5-1.1L85,66.4l0.3-0.2
				l0.3,0.4l0.7-0.5l0.3,0.4L85.9,67l0.6,0.8L86.2,68l-0.6-0.8l-1.4,1c-0.2,0.1-0.2,0.2-0.3,0.3c0,0.1,0,0.2,0.1,0.3
				s0.2,0.2,0.4,0.3L84.2,69.5z"/>
			<path class="st0" d="M85.9,71.8l0.4-0.3c-0.4,0-0.8-0.1-1.2-0.5c-0.1-0.2-0.2-0.3-0.3-0.5c-0.1-0.2,0-0.3,0-0.5
				c0-0.2,0.1-0.3,0.3-0.4c0.2-0.2,0.4-0.3,0.7-0.2c0.3,0,0.5,0.2,0.8,0.5l0.7,0.8l0.1-0.1c0.2-0.2,0.3-0.3,0.3-0.5
				c0-0.2-0.1-0.4-0.3-0.6c-0.2-0.2-0.5-0.4-0.9-0.5l0.1-0.4c0.3,0.1,0.5,0.1,0.7,0.2c0.2,0.1,0.4,0.2,0.5,0.4
				c0.3,0.3,0.4,0.6,0.4,0.9c0,0.3-0.1,0.5-0.4,0.8l-1.5,1.4L85.9,71.8z M86.1,71.1c0.2,0.1,0.4,0,0.6-0.1l0.3-0.2l-0.7-0.7
				c-0.4-0.4-0.7-0.5-0.9-0.2c-0.1,0.1-0.2,0.3-0.2,0.4c0,0.2,0.1,0.3,0.2,0.5C85.7,71,85.9,71.1,86.1,71.1z"/>
			<path class="st0" d="M91,72.5c0,0.3-0.1,0.6-0.3,0.9l-1.2,1.5l-0.4-0.3l1.2-1.4c0.2-0.2,0.3-0.4,0.2-0.7c0-0.2-0.1-0.4-0.4-0.6
				c-0.2-0.2-0.5-0.3-0.8-0.2c-0.3,0.1-0.5,0.2-0.7,0.4l-1.1,1.3l-0.4-0.3l2-2.4l0.4,0.3l-0.4,0.5c0.5-0.2,0.9-0.1,1.4,0.2
				C90.8,71.9,91,72.2,91,72.5z"/>
			<path class="st0" d="M92,76.3c-0.3,0-0.5-0.1-0.7-0.2c-0.2-0.1-0.3-0.3-0.4-0.5c0-0.2,0-0.4,0.2-0.7l1-1.5l-0.4-0.2l0.2-0.3
				l0.4,0.2l0.4-0.7l0.4,0.2l-0.4,0.7l0.8,0.5l-0.2,0.3l-0.8-0.5l-0.9,1.5c-0.1,0.2-0.1,0.3-0.1,0.4s0.1,0.2,0.2,0.3
				c0.1,0.1,0.3,0.1,0.5,0.1L92,76.3z"/>
			<path class="st0" d="M95.1,75.1c-0.1-0.1-0.2-0.2-0.4-0.3c-0.2-0.1-0.3-0.1-0.5-0.1c-0.2,0-0.2,0.1-0.3,0.2c0,0.1-0.1,0.2,0,0.3
				c0,0.1,0.1,0.2,0.1,0.2c0.1,0.1,0.2,0.2,0.3,0.3c0.2,0.2,0.3,0.3,0.4,0.4c0.1,0.1,0.2,0.3,0.2,0.4c0,0.2,0,0.3-0.1,0.5
				c-0.1,0.3-0.3,0.4-0.6,0.4c-0.3,0-0.5,0-0.8-0.2c-0.2-0.1-0.4-0.2-0.5-0.4c-0.2-0.2-0.3-0.3-0.3-0.5l0.3-0.2
				c0.1,0.2,0.2,0.3,0.3,0.5c0.1,0.2,0.3,0.3,0.5,0.4c0.2,0.1,0.3,0.1,0.5,0.1c0.1,0,0.3-0.1,0.3-0.2c0.1-0.1,0.1-0.3,0-0.4
				c-0.1-0.1-0.2-0.3-0.4-0.5c-0.2-0.2-0.3-0.3-0.4-0.4c-0.1-0.1-0.1-0.2-0.2-0.4c-0.1-0.2,0-0.3,0.1-0.5c0.1-0.3,0.3-0.4,0.6-0.4
				c0.3,0,0.5,0,0.8,0.2c0.2,0.1,0.3,0.2,0.4,0.3c0.1,0.1,0.2,0.3,0.3,0.4l-0.3,0.2C95.3,75.3,95.2,75.2,95.1,75.1z"/>
			<path class="st0" d="M100.1,79.8l-0.5-0.9c-0.5,0.3-1,0.4-1.4,0.3c-0.2-0.1-0.4-0.2-0.6-0.3c-0.2-0.1-0.3-0.3-0.3-0.5
				c0-0.2-0.1-0.4,0-0.6c0.1-0.3,0.2-0.5,0.4-0.6c0.2-0.1,0.5-0.2,0.8-0.3c-0.1-0.2-0.1-0.4-0.2-0.6c0-0.2,0-0.3,0-0.5
				c0.1-0.3,0.2-0.4,0.4-0.5c0.2-0.1,0.5-0.1,0.8,0c0.3,0.1,0.5,0.2,0.6,0.4c0.1,0.2,0.2,0.4,0.1,0.7c0,0.2-0.1,0.3-0.3,0.4
				c-0.1,0.1-0.3,0.2-0.4,0.2c-0.2,0.1-0.4,0.1-0.6,0.2c0.1,0.3,0.4,0.8,0.7,1.3c0.2-0.2,0.4-0.4,0.6-0.7l0.2,0.3
				c-0.2,0.3-0.4,0.5-0.7,0.7L100.1,79.8L100.1,79.8z M98.9,78.9c0.2,0,0.4-0.1,0.6-0.2c-0.4-0.7-0.6-1.1-0.8-1.4
				c-0.3,0.1-0.5,0.1-0.7,0.2c-0.2,0.1-0.3,0.2-0.3,0.4c-0.1,0.2,0,0.4,0.1,0.6c0.1,0.2,0.3,0.3,0.5,0.4
				C98.5,78.9,98.7,78.9,98.9,78.9z M98.8,76.3c0,0.1,0.1,0.3,0.1,0.5c0.3-0.1,0.6-0.1,0.7-0.2c0.1-0.1,0.3-0.2,0.3-0.4
				c0-0.2,0-0.3-0.1-0.4c-0.1-0.1-0.2-0.2-0.4-0.3c-0.2-0.1-0.3,0-0.5,0c-0.1,0.1-0.2,0.2-0.3,0.4C98.7,76,98.7,76.2,98.8,76.3z"/>
			<path class="st0" d="M106.3,76.4c0.2,0.2,0.3,0.5,0.3,0.8c0,0.2-0.1,0.4-0.2,0.6c-0.1,0.2-0.3,0.3-0.6,0.3
				c0.3,0.1,0.5,0.2,0.7,0.4c0.2,0.2,0.2,0.4,0.2,0.7c0,0.4-0.2,0.6-0.4,0.8c-0.2,0.2-0.7,0.3-1.1,0.3l-1.8-0.1l0.2-4.2l1.8,0.1
				C105.7,76.1,106,76.2,106.3,76.4z M105.9,79.7c0.2-0.1,0.3-0.3,0.3-0.6c0-0.2-0.1-0.4-0.3-0.6c-0.2-0.1-0.4-0.2-0.8-0.2l-1.3-0.1
				l-0.1,1.5l1.3,0.1C105.4,79.9,105.7,79.8,105.9,79.7z M105.8,77.8c0.2-0.1,0.2-0.3,0.3-0.5c0-0.2-0.1-0.4-0.2-0.5
				c-0.1-0.1-0.4-0.2-0.7-0.2l-1.2-0.1l-0.1,1.4l1.3,0.1C105.5,77.9,105.7,77.9,105.8,77.8z"/>
			<path class="st0" d="M110.3,76.9l0.3,3.1l-0.5,0.1l-0.1-0.7c-0.2,0.5-0.5,0.8-1.1,0.9c-0.4,0-0.7,0-0.9-0.2
				c-0.2-0.2-0.4-0.5-0.4-0.9l-0.2-1.9l0.5-0.1l0.2,1.8c0,0.3,0.1,0.5,0.3,0.6c0.2,0.1,0.4,0.2,0.7,0.2c0.3,0,0.6-0.2,0.7-0.4
				c0.1-0.2,0.2-0.5,0.2-0.9l-0.2-1.5L110.3,76.9z"/>
			<path class="st0" d="M112.6,76.8c-0.2,0-0.3,0-0.4,0c-0.2,0-0.3,0.1-0.4,0.2s-0.1,0.2-0.1,0.4c0,0.1,0.1,0.2,0.2,0.2
				c0.1,0,0.2,0.1,0.3,0.1s0.2,0,0.4,0c0.2,0,0.4,0,0.6,0.1c0.1,0,0.3,0.1,0.4,0.2c0.1,0.1,0.2,0.2,0.3,0.4c0.1,0.3,0,0.5-0.2,0.7
				c-0.2,0.2-0.4,0.3-0.7,0.4c-0.2,0.1-0.4,0.1-0.7,0c-0.2,0-0.4-0.1-0.6-0.2l0.1-0.4c0.2,0.1,0.3,0.1,0.5,0.2c0.2,0,0.4,0,0.6,0
				s0.3-0.1,0.4-0.2c0.1-0.1,0.1-0.2,0.1-0.4c0-0.1-0.1-0.2-0.3-0.3c-0.1,0-0.3-0.1-0.6-0.1c-0.2,0-0.4,0-0.5-0.1
				c-0.1,0-0.3-0.1-0.4-0.2c-0.1-0.1-0.2-0.2-0.2-0.4c-0.1-0.3,0-0.5,0.2-0.7c0.2-0.2,0.4-0.3,0.7-0.4c0.2,0,0.4-0.1,0.5,0
				c0.2,0,0.4,0,0.5,0.1l-0.3,0.5C112.9,76.8,112.7,76.8,112.6,76.8z"/>
			<path class="st0" d="M113.9,74.8c0.1,0,0.1,0.1,0.2,0.2c0,0.1,0,0.2,0,0.2s-0.1,0.1-0.2,0.2c-0.1,0.1-0.2,0-0.2,0
				c-0.1,0-0.1-0.1-0.2-0.2c0-0.1,0-0.2,0-0.2s0.1-0.1,0.2-0.2C113.8,74.7,113.8,74.7,113.9,74.8z M113.8,76l0.4-0.1l1,3l-0.4,0.1
				L113.8,76z"/>
			<path class="st0" d="M117.7,74.7c0.3,0.1,0.5,0.3,0.7,0.7l0.8,1.8l-0.4,0.2l-0.8-1.7c-0.1-0.3-0.3-0.4-0.5-0.5
				c-0.2-0.1-0.4-0.1-0.7,0.1c-0.3,0.1-0.5,0.3-0.6,0.6c-0.1,0.2-0.1,0.5,0,0.8l0.7,1.5l-0.4,0.2l-1.3-2.9l0.4-0.2l0.3,0.6
				c0-0.5,0.3-0.9,0.8-1.2C117.1,74.7,117.4,74.6,117.7,74.7z"/>
			<path class="st0" d="M120.9,73c0.4,0.1,0.7,0.4,1,0.9l-2.2,1.4c0.2,0.2,0.4,0.4,0.7,0.4c0.3,0,0.5,0,0.8-0.2
				c0.2-0.1,0.3-0.2,0.4-0.4c0.1-0.1,0.2-0.3,0.2-0.5l0.4,0.1c0,0.2-0.1,0.4-0.3,0.6c-0.1,0.2-0.3,0.4-0.5,0.5
				c-0.3,0.2-0.5,0.3-0.8,0.3c-0.3,0-0.5,0-0.8-0.2c-0.3-0.2-0.4-0.3-0.6-0.6c-0.2-0.3-0.3-0.5-0.3-0.8c0-0.3,0-0.5,0.2-0.8
				c0.2-0.3,0.3-0.4,0.6-0.6C120.1,72.9,120.5,72.9,120.9,73z M121.3,73.8c-0.2-0.3-0.4-0.4-0.7-0.5c-0.3-0.1-0.5,0-0.8,0.2
				c-0.3,0.2-0.4,0.4-0.5,0.6c-0.1,0.3,0,0.5,0.1,0.8L121.3,73.8z"/>
			<path class="st0" d="M122.7,71.5c-0.1,0.1-0.3,0.1-0.4,0.2c-0.2,0.2-0.3,0.3-0.3,0.4s0,0.2,0.1,0.4c0.1,0.1,0.1,0.1,0.2,0.1
				s0.2,0,0.3,0s0.2-0.1,0.4-0.1c0.2-0.1,0.4-0.2,0.5-0.2s0.3,0,0.4,0c0.2,0,0.3,0.1,0.4,0.3c0.2,0.2,0.2,0.5,0.2,0.7
				c-0.1,0.3-0.2,0.5-0.5,0.7c-0.2,0.1-0.4,0.3-0.6,0.3c-0.2,0.1-0.4,0.1-0.6,0.1l0-0.4c0.2,0,0.4,0,0.6-0.1
				c0.2-0.1,0.4-0.2,0.5-0.3c0.2-0.1,0.3-0.3,0.3-0.4s0-0.3-0.1-0.4s-0.2-0.2-0.4-0.1c-0.1,0-0.3,0.1-0.6,0.2
				c-0.2,0.1-0.4,0.1-0.5,0.2c-0.1,0-0.3,0-0.4,0c-0.1,0-0.3-0.1-0.4-0.3c-0.2-0.2-0.2-0.5-0.2-0.7c0.1-0.2,0.2-0.5,0.5-0.7
				c0.1-0.1,0.3-0.2,0.5-0.3c0.2-0.1,0.3-0.1,0.5-0.1l0.1,0.4C123,71.4,122.8,71.4,122.7,71.5z"/>
			<path class="st0" d="M124.6,69.7c-0.1,0.1-0.3,0.2-0.4,0.3s-0.2,0.3-0.2,0.4s0,0.2,0.1,0.3s0.2,0.1,0.2,0.1c0.1,0,0.2,0,0.3-0.1
				c0.1,0,0.2-0.1,0.4-0.2c0.2-0.1,0.4-0.2,0.5-0.2c0.1-0.1,0.3-0.1,0.4-0.1c0.1,0,0.3,0.1,0.4,0.2c0.2,0.2,0.3,0.4,0.2,0.7
				c0,0.3-0.2,0.5-0.4,0.7c-0.2,0.2-0.3,0.3-0.6,0.4c-0.2,0.1-0.4,0.2-0.6,0.2l-0.1-0.4c0.2,0,0.4-0.1,0.5-0.1
				c0.2-0.1,0.3-0.2,0.5-0.3c0.1-0.1,0.2-0.3,0.3-0.4c0-0.1,0-0.3-0.1-0.4c-0.1-0.1-0.2-0.1-0.4-0.1c-0.2,0-0.3,0.1-0.6,0.2
				c-0.2,0.1-0.4,0.2-0.5,0.2s-0.3,0.1-0.4,0.1c-0.1,0-0.3-0.1-0.4-0.2c-0.2-0.2-0.3-0.4-0.2-0.7c0-0.2,0.2-0.5,0.4-0.7
				c0.1-0.1,0.3-0.2,0.4-0.3c0.2-0.1,0.3-0.2,0.5-0.2l0.1,0.4C124.9,69.6,124.7,69.6,124.6,69.7z"/>
			<path class="st0" d="M130.7,66.1l-1.2-0.2l-1.2,1.9l0.6,1l-0.3,0.4l-2.5-3.9l0.3-0.4l4.5,0.7L130.7,66.1z M128,67.4l1-1.6
				l-2.3-0.4L128,67.4z"/>
			<path class="st0" d="M128.4,60.5l4.1,1.8l-0.2,0.4l-0.6-0.3c0.2,0.2,0.2,0.4,0.3,0.7c0,0.2,0,0.5-0.1,0.7
				c-0.1,0.3-0.3,0.5-0.5,0.6c-0.2,0.2-0.5,0.2-0.7,0.3s-0.6,0-0.8-0.2c-0.2-0.2-0.5-0.3-0.7-0.5c-0.2-0.2-0.3-0.5-0.3-0.7
				s0-0.5,0.1-0.8c0.1-0.3,0.3-0.5,0.5-0.6s0.4-0.2,0.7-0.2l-1.8-0.8V60.5z M131.5,63c0-0.2-0.1-0.4-0.2-0.5
				c-0.1-0.2-0.3-0.3-0.5-0.4c-0.2-0.1-0.4-0.1-0.6-0.1s-0.4,0.1-0.6,0.2s-0.3,0.3-0.4,0.5c-0.1,0.2-0.1,0.4-0.1,0.6
				c0,0.2,0.1,0.4,0.2,0.5c0.1,0.2,0.3,0.3,0.5,0.4c0.2,0.1,0.4,0.1,0.6,0.1c0.2,0,0.4-0.1,0.6-0.2c0.2-0.1,0.3-0.3,0.4-0.5
				C131.5,63.4,131.6,63.2,131.5,63z"/>
			<path class="st0" d="M129.7,60.6l0.1-0.5l2.9-0.2l-2.3-1.7l0.1-0.5l2.7,2.1l-0.1,0.5L129.7,60.6z"/>
			<path class="st0" d="M129.6,56.6c0.1,0,0.2-0.1,0.2,0c0.1,0,0.2,0.1,0.2,0.1c0,0.1,0.1,0.1,0,0.2c0,0.1-0.1,0.2-0.1,0.2
				c-0.1,0-0.2,0.1-0.2,0c-0.1,0-0.2-0.1-0.2-0.1c0-0.1-0.1-0.1,0-0.2C129.5,56.7,129.5,56.6,129.6,56.6z M130.6,57.3l0.1-0.5
				l3.1,0.6l-0.1,0.5L130.6,57.3z"/>
			<path class="st0" d="M131.5,54.6c-0.1,0.1-0.1,0.3-0.1,0.4c0,0.2,0,0.3,0.1,0.5c0.1,0.1,0.2,0.2,0.3,0.2c0.1,0,0.2,0,0.3-0.1
				c0.1-0.1,0.1-0.1,0.2-0.2c0-0.1,0.1-0.2,0.2-0.4c0.1-0.2,0.2-0.4,0.3-0.5c0.1-0.1,0.2-0.2,0.3-0.3c0.1-0.1,0.3-0.1,0.5-0.1
				c0.3,0,0.5,0.2,0.6,0.4c0.1,0.2,0.2,0.5,0.1,0.8c0,0.2-0.1,0.4-0.2,0.6c-0.1,0.2-0.2,0.4-0.4,0.5l-0.3-0.2
				c0.1-0.1,0.3-0.3,0.3-0.4c0-0.1,0.1-0.4,0.2-0.6c0-0.2,0-0.4-0.1-0.5c-0.1-0.1-0.2-0.2-0.3-0.2c-0.2,0-0.3,0-0.4,0.1
				c-0.1,0.1-0.2,0.3-0.3,0.5c-0.1,0.2-0.2,0.4-0.2,0.5c-0.1,0.1-0.2,0.2-0.3,0.3c-0.1,0.1-0.3,0.1-0.5,0.1c-0.3,0-0.5-0.2-0.6-0.4
				c-0.1-0.2-0.2-0.5-0.1-0.8c0-0.2,0.1-0.4,0.1-0.5c0.1-0.2,0.2-0.3,0.3-0.4l0.3,0.2C131.6,54.3,131.5,54.4,131.5,54.6z"/>
			<path class="st0" d="M131.3,51.1c0.1-0.2,0.3-0.4,0.6-0.6c0.2-0.1,0.5-0.2,0.8-0.2s0.6,0.1,0.8,0.2c0.2,0.1,0.4,0.3,0.6,0.6
				c0.1,0.2,0.2,0.5,0.2,0.8s-0.1,0.6-0.2,0.8c-0.1,0.2-0.3,0.4-0.6,0.6c-0.2,0.1-0.5,0.2-0.8,0.2s-0.6-0.1-0.8-0.2
				c-0.2-0.1-0.4-0.3-0.6-0.6c-0.1-0.2-0.2-0.5-0.2-0.8S131.2,51.3,131.3,51.1z M131.7,52.5c0.1,0.2,0.2,0.3,0.4,0.4
				c0.2,0.1,0.4,0.1,0.6,0.1s0.4-0.1,0.6-0.2c0.2-0.1,0.3-0.2,0.4-0.4c0.1-0.2,0.1-0.4,0.1-0.6s-0.1-0.4-0.2-0.6
				c-0.1-0.2-0.2-0.3-0.4-0.4c-0.2-0.1-0.4-0.1-0.6-0.1s-0.4,0.1-0.6,0.2c-0.2,0.1-0.3,0.2-0.4,0.4c-0.1,0.2-0.1,0.4-0.1,0.6
				S131.6,52.3,131.7,52.5z"/>
			<path class="st0" d="M131.1,48.7c-0.1-0.2-0.2-0.4-0.3-0.7l0.5-0.1c0,0.3,0.2,0.6,0.4,0.8s0.5,0.3,0.8,0.2l1.7-0.2l0.1,0.5
				l-3.3,0.4l-0.1-0.5l0.7-0.1C131.4,49,131.2,48.9,131.1,48.7z"/>
			<path class="st0" d="M130.9,46.2c0,0.2,0,0.3,0,0.4c0,0.2,0.1,0.3,0.2,0.4c0.1,0.1,0.2,0.1,0.4,0.1c0.1,0,0.2-0.1,0.2-0.1
				c0-0.1,0.1-0.2,0.1-0.3s0-0.2,0-0.4c0-0.2,0-0.4,0.1-0.6c0-0.1,0.1-0.3,0.2-0.4c0.1-0.1,0.2-0.2,0.4-0.2c0.3-0.1,0.5,0,0.7,0.2
				c0.2,0.2,0.3,0.4,0.4,0.8c0,0.2,0.1,0.4,0,0.7c0,0.2-0.1,0.4-0.2,0.6l-0.4-0.1c0.1-0.2,0.2-0.3,0.2-0.5s0-0.4,0-0.6
				s-0.1-0.3-0.2-0.5s-0.2-0.1-0.4-0.1c-0.1,0-0.2,0.1-0.3,0.3c-0.1,0.2-0.1,0.3-0.1,0.6c0,0.2,0,0.4-0.1,0.5c0,0.1-0.1,0.3-0.2,0.4
				c-0.1,0.1-0.2,0.2-0.4,0.2c-0.3,0.1-0.5,0-0.7-0.2s-0.3-0.4-0.4-0.7c0-0.2-0.1-0.4,0-0.5c0-0.2,0-0.4,0.1-0.5l0.4,0.1
				C130.9,45.9,130.9,46,130.9,46.2z"/>
		</g>
	</g>
	<g>
		<path class="st2" d="M99.5,55v7.4h2.3v-4.3C100.8,57.3,100,56.2,99.5,55z"/>
		<path class="st2" d="M111.6,44.2c0.6,0,1.2-0.5,1.2-1.2s-0.5-1.2-1.2-1.2c-0.6,0-1.2,0.5-1.2,1.2S111,44.2,111.6,44.2z"/>
		<path class="st2" d="M112.8,50.8v-0.7v-4.2h-2.3v1v0.3v0.3v5c0,2.4-1.9,4.3-4.3,4.3c-2.4,0-4.3-1.9-4.3-4.3c0-2.4,1.9-4.3,4.3-4.3
			c1.8,0,3.3,1.1,4,2.6v-3.6c-1.1-0.8-2.5-1.3-4-1.3c-3.7,0-6.6,3-6.6,6.6c0,2,0.9,3.8,2.3,5c1.2,1,2.7,1.6,4.3,1.6
			c3.7,0,6.6-3,6.6-6.6l0,0V50.8z"/>
	</g>
</g>
</svg>
