<svg xmlns="http://www.w3.org/2000/svg" viewBox="0 0 100 100"><circle cx="50" cy="50" r="48" fill="#f0f9ff" class="dark:fill-slate-800"/><ellipse cx="55" cy="55" fill="#64748b" class="dark:fill-slate-600" rx="30" ry="25"/><ellipse cx="30" cy="45" fill="#64748b" class="dark:fill-slate-600" rx="18" ry="16"/><ellipse cx="35" cy="35" fill="#94a3b8" class="dark:fill-slate-500" rx="14" ry="12"/><ellipse cx="25" cy="35" fill="#64748b" class="dark:fill-slate-600" rx="14" ry="12"/><ellipse cx="35" cy="35" fill="#64748b" class="dark:fill-slate-600" rx="10" ry="9"/><ellipse cx="25" cy="35" fill="#475569" class="dark:fill-slate-700" rx="10" ry="9"/><path fill="#64748b" d="M25 50 15 70q-2 5 3 8 5 2 7-3t0-10 2-10q2-3 3-5" class="dark:fill-slate-600"/><circle cx="25" cy="42" r="2" fill="#1e293b" class="dark:fill-white"/><path fill="none" stroke="#fff" stroke-width="2" d="M20 55q-2 3-4 5m-1-5q-2 3-4 5" class="dark:stroke-slate-300"/><circle cx="50" cy="50" r="46" fill="none" stroke="#0ea5e9" stroke-dasharray="3,2" stroke-width="1.5" class="dark:stroke-teal-500"/><style>circle,ellipse,path{transition:all .3s ease}</style></svg>