<?xml version="1.0" encoding="utf-8"?>
<!-- Generator: Adobe Illustrator 23.0.2, SVG Export Plug-In . SVG Version: 6.00 Build 0)  -->
<svg version="1.1" id="Layer_1" xmlns="http://www.w3.org/2000/svg" xmlns:xlink="http://www.w3.org/1999/xlink" x="0px" y="0px"
	 viewBox="0 0 72.3 72.3" style="enable-background:new 0 0 72.3 72.3;" xml:space="preserve">
<style type="text/css">
	.st0{fill:#5BBDB2;}
	.st1{fill:#FFFFFF;}
</style>
<circle class="st0" cx="36.1" cy="36.1" r="36.1"/>
<g>
	<g>
		<path class="st1" d="M19.3,43.3v18.8h5.9V51.3C22.5,49.3,20.4,46.5,19.3,43.3z"/>
		<path class="st1" d="M50.1,16c1.6,0,2.9-1.3,2.9-2.9s-1.3-2.9-2.9-2.9c-1.6,0-2.9,1.3-2.9,2.9S48.5,16,50.1,16z"/>
		<path class="st1" d="M53,32.8v-1.9V20.2h-5.9v2.7v0.7v0.7v12.8c0,6.1-4.9,11-11,11c-6.1,0-11-4.9-11-11c0-6.1,4.9-11,11-11
			c4.5,0,8.4,2.7,10.1,6.6v-9.1c-2.8-2.1-6.3-3.4-10.1-3.4c-9.3,0-16.9,7.5-16.9,16.9c0,5.1,2.3,9.7,5.9,12.8c3,2.6,6.8,4.1,11,4.1
			C45.4,54,53,46.4,53,37.1c0,0,0,0,0,0V32.8z"/>
	</g>
</g>
</svg>
